<svg
  viewBox="0 0 64 64"
  xmlns="http://www.w3.org/2000/svg"
  width="64"
  height="64"
  fill="#000000"
>
  <g id="SVGRepo_bgCarrier" stroke-width="0"></g>
  <g
    id="SVGRepo_tracerCarrier"
    stroke-linecap="round"
    stroke-linejoin="round"
  ></g>
  <g id="SVGRepo_iconCarrier">
    <path
      fill="#F9EBB2"
      d="M32 61.406l-5.625-5.625c-9.997-9.996-19.997-19.997-26.607-27.992l-3.786 3.784A1.997 1.997 0 0 0 0 32.307c0 1.105.893 2 1.998 2.001L3.789 37.09C9.132 42.19 18.136 51.194 32 61.406zM56.207 11.806L58 10.014a1.998 1.998 0 0 0 0-2.828L56.822 6.45a1.997 1.997 0 0 0-2.828 0L49.005 8.22l5.625 5.625 1.768-1.768a1.996 1.996 0 0 0 0-2.829zM17.792 52.192a1.996 1.996 0 0 0 2.828 0l2.121-2.121L12.19 42.31l-2.122 2.122a1.998 1.998 0 0 0 0 2.828L17.792 52.192zM57.998 32.307c0 1.104-.893 2-1.998 2.001L60.209 26.91C54.868 21.81 45.864 12.806 32 2.594L38.625 7.22l2.122-2.122a1.996 1.996 0 0 0 0-2.828L42.207 1.805a1.997 1.997 0 0 0-2.828 0l-5.626 5.626c-8.984 8.984-18.984 18.985-25.607 26.98l14.393 14.393c4.579-2.973 10.632-7.076 17.979-11.999 1.413-.927 3.04-.555 4.203.607.513.513.875 1.184 1.038 1.91s-.063 1.527-.514 2.079l-2.121 2.121 5.625 5.625a1.998 1.998 0 0 0 2.828 0l5.625-5.625 2.121 2.121z"
    ></path>
  </g>
</svg>
