<svg version="1.1" id="Layer_1" xmlns="http://www.w3.org/2000/svg" xmlns:xlink="http://www.w3.org/1999/xlink" x="0px" y="0px"
	 width="100%" viewBox="0 0 179 86" enable-background="new 0 0 179 86" xml:space="preserve">
<path fill="#023047" opacity="1.000000" stroke="none" 
	d="
M1.000000,60.000000 
	C1.000000,57.958324 1.000000,55.916645 1.278764,53.245712 
	C6.804992,45.437408 11.550031,45.550167 16.576128,52.967766 
	C17.693604,54.616955 18.742577,56.322643 19.976463,57.880867 
	C22.978430,61.671925 26.995617,63.606369 31.753931,62.789219 
	C36.526215,61.969677 40.405445,59.698864 42.038376,54.534374 
	C44.126904,47.928959 41.507591,41.512440 34.442741,36.181679 
	C30.880678,33.493935 26.761909,31.005718 24.406734,27.431152 
	C22.600681,24.690016 22.227718,20.164623 23.017973,16.863865 
	C23.502066,14.841898 27.197134,12.840945 29.781965,12.226768 
	C35.014938,10.983372 40.635738,14.865213 43.619083,21.371433 
	C45.409828,25.276781 45.945503,29.872066 48.212643,33.408981 
	C50.087467,36.333855 53.472023,39.678791 56.553631,40.089138 
	C60.358650,40.595806 61.818226,36.378437 62.102776,32.576141 
	C62.274914,30.275930 62.800152,28.002590 62.981831,25.702570 
	C63.780708,15.588872 66.196030,6.355880 76.000000,1.000000 
	C79.362434,1.000000 82.724861,1.000000 86.737091,1.280135 
	C95.522797,7.511653 95.004982,15.546882 86.469810,20.345875 
	C82.689743,22.471262 79.388130,25.447607 75.869324,28.037661 
	C76.006767,28.427061 76.144211,28.816462 76.281654,29.205862 
	C82.667961,28.083391 86.491318,31.927540 90.395859,35.832035 
	C93.884094,39.320217 95.775993,38.792641 97.423454,34.139877 
	C98.030495,32.425468 98.490303,30.658640 99.008713,28.913177 
	C103.005554,15.455824 111.234512,6.038105 126.011955,8.132347 
	C128.097916,8.427967 129.949051,10.380661 131.908875,11.566360 
	C130.455185,13.703260 129.281494,16.133059 127.454582,17.879564 
	C126.118263,19.157061 123.903061,19.492935 122.114166,20.323000 
	C112.502731,24.782797 106.234871,43.681217 109.078468,52.913300 
	C110.089737,56.196526 111.183739,59.813858 110.739677,63.074345 
	C110.370682,65.783676 108.362076,69.122765 106.068657,70.503784 
	C103.116219,72.281639 99.627342,70.966606 97.369781,67.857018 
	C95.932724,65.877609 94.448074,63.932755 92.993378,61.984684 
	C93.001999,61.996964 93.022690,62.018696 92.978661,61.663448 
	C90.546837,57.729755 88.159042,54.151314 84.913475,49.287380 
	C82.974808,52.970367 82.051056,55.015736 80.875023,56.903973 
	C77.586212,62.184475 74.992210,68.222588 70.648308,72.442719 
	C64.575363,78.342613 52.049351,79.528091 50.086807,68.081787 
	C48.338081,69.217598 46.695801,70.258995 45.078896,71.338409 
	C30.742065,80.909409 8.489004,79.715279 1.000000,60.000000 
M62.007565,53.490128 
	C59.745979,56.682842 57.484390,59.875557 55.132183,63.196201 
	C65.858887,63.362286 73.331444,53.391487 73.919342,45.405514 
	C74.248276,40.937237 73.978500,36.424885 73.978500,31.718103 
	C70.132614,38.799538 66.297188,45.861702 62.007565,53.490128 
z"/>
<path fill="#023047" opacity="1.000000" stroke="none" 
	d="
M108.000000,87.000000 
	C105.629440,87.000000 103.258888,87.000000 100.195076,86.718315 
	C92.405113,85.322151 85.563332,83.034683 82.781776,75.943146 
	C81.333916,72.251831 81.307358,67.071571 82.772758,63.420345 
	C84.367920,59.445805 89.018913,61.230049 92.530716,62.054115 
	C92.683525,62.089970 92.858200,62.032619 93.022690,62.018692 
	C93.022690,62.018696 93.001999,61.996964 92.951042,62.362240 
	C93.337326,63.971764 93.604210,65.312370 94.243385,66.442398 
	C96.254242,69.997513 97.800682,74.234543 103.051003,73.970200 
	C108.248001,73.708549 111.869766,70.780815 113.684822,66.227760 
	C117.077393,57.717525 118.973846,48.899986 116.751556,39.675739 
	C116.481636,38.555340 116.096313,37.429096 116.050850,36.294094 
	C115.853088,31.357189 118.868835,27.509960 123.191841,27.033831 
	C128.183609,26.484049 129.875427,28.080811 130.997635,34.327774 
	C131.259933,35.787838 131.342606,37.390602 132.034164,38.635330 
	C132.910065,40.211842 134.391357,42.685432 135.490005,42.623287 
	C137.254181,42.523502 139.706467,41.036068 140.454742,39.462841 
	C141.842407,36.545296 142.561798,33.182827 142.933807,29.933994 
	C143.901886,21.479624 147.341187,14.340856 153.752869,8.812335 
	C161.663666,1.991195 171.896194,-2.061672 180.000000,7.000000 
	C180.000000,9.370558 180.000000,11.741115 179.716400,14.754190 
	C176.224487,20.139994 170.906830,20.187113 166.148270,20.872559 
	C160.710648,21.655825 156.451370,23.901125 154.653900,28.989605 
	C152.916214,33.908871 151.586960,39.130722 151.145325,44.310631 
	C150.553940,51.246922 151.103317,58.273415 150.942459,65.256096 
	C150.844894,69.491013 147.194595,73.544250 143.353790,73.903923 
	C138.539124,74.354782 136.378540,71.355270 135.676620,67.188126 
	C135.276184,64.810837 135.511536,62.316166 135.560287,59.876343 
	C135.610397,57.367165 135.781723,54.860409 135.916153,52.010597 
	C129.922180,53.024067 130.140259,57.378609 129.023132,60.800678 
	C125.309708,72.176003 120.836853,82.944534 108.000000,87.000000 
z"/>

<path fill="#023047" opacity="1.000000" stroke="none" 
	d="
M161.000000,41.022690 
	C160.392944,34.407791 162.004196,29.035278 166.706421,24.860476 
	C167.916245,23.786352 169.354431,22.742018 170.869400,22.280554 
	C175.932831,20.738247 178.599808,22.479250 177.883026,27.635996 
	C176.047821,40.839279 175.190170,54.340630 168.743530,66.463249 
	C167.826324,68.188042 166.472778,69.692360 165.244461,71.237724 
	C162.694748,74.445564 159.135635,75.259583 155.999603,73.095673 
	C152.526703,70.699326 153.257355,66.661583 155.297668,63.704563 
	C159.978821,56.920177 160.894058,49.354034 161.000000,41.022690 
z"/>
</svg>